<svg width="120" height="120" viewBox="0 0 120 120" fill="none" xmlns="http://www.w3.org/2000/svg">
<g clip-path="url(#clip0_7015_12889)">
<path d="M59.2616 57.0605L34.3447 65.336L59.2616 73.6243L84.1785 65.336L59.2616 57.0605Z" fill="#B096FF"/>
<path d="M48.6036 92.1565C48.5 92.1565 48.3964 92.1436 48.3057 92.1047L14.0903 80.8766C13.8054 80.7859 13.5853 80.5658 13.4817 80.2809C13.378 79.996 13.4169 79.6851 13.5723 79.4391L20.5656 68.4052C20.8505 67.9519 21.4463 67.8224 21.8995 68.1073C22.3528 68.3922 22.4823 68.988 22.1974 69.4412L15.8775 79.4261L48.241 90.0456L57.7079 77.1468L24.9429 66.2554C24.7616 66.1906 24.6062 66.087 24.4767 65.9316L14.7249 53.3307C14.5306 53.0847 14.4788 52.7609 14.5565 52.463C14.6343 52.1652 14.8674 51.9321 15.1652 51.8155L48.8238 39.8621C49.2252 39.7197 49.6655 39.8621 49.9246 40.1859L59.2878 52.4371L69.0008 40.1729C69.2598 39.8492 69.6871 39.7197 70.0757 39.8621L104.11 51.4529C104.408 51.5565 104.641 51.8026 104.731 52.1004C104.822 52.4112 104.757 52.735 104.55 52.9811L94.5652 65.3359L106.376 79.4391C106.583 79.6851 106.648 80.0219 106.557 80.3327C106.467 80.6435 106.234 80.8895 105.923 80.9802L70.7879 92.1047C70.3994 92.2213 69.972 92.1047 69.726 91.768L59.2878 78.2606L49.3806 91.7551C49.1993 92.0141 48.9015 92.1565 48.6036 92.1565ZM60.039 76.0719L70.8397 90.0586L103.954 79.5686L92.5578 65.9575C92.26 65.6079 92.26 65.0898 92.5578 64.7272L102.167 52.8386L70.1016 41.9213L60.039 54.6258C59.8577 54.8589 59.5727 54.9884 59.2749 54.9884C58.977 54.9884 58.6921 54.8459 58.5108 54.6128L48.8238 41.9342L17.0819 53.2012L25.8365 64.5071L59.5857 75.7223C59.5857 75.7223 59.5986 75.7223 59.6116 75.7223C59.7929 75.787 59.9483 75.9036 60.0519 76.046L60.039 76.0719Z" fill="#2C3E5E"/>
<path d="M25.2408 66.3063C24.8393 66.3063 24.4508 66.0473 24.3213 65.6458C24.153 65.1407 24.4249 64.5839 24.93 64.4155L58.9641 53.0967C59.4692 52.9284 60.026 53.2003 60.1944 53.7054C60.3628 54.2105 60.0908 54.7673 59.5857 54.9357L25.5516 66.2545C25.448 66.2933 25.3444 66.3063 25.2408 66.3063Z" fill="#2C3E5E"/>
<path d="M59.2623 77.6258C58.8608 77.6258 58.4723 77.3668 58.3428 76.9653C58.1744 76.4603 58.4464 75.9034 58.9515 75.735L90.2142 65.3487L58.9515 54.9494C58.4464 54.781 58.1744 54.2371 58.3428 53.7191C58.5112 53.214 59.0551 52.942 59.5731 53.1104L93.6072 64.4292C94.0087 64.5587 94.2677 64.9343 94.2677 65.3487C94.2677 65.7631 93.9957 66.1387 93.6072 66.2682L59.5731 77.587C59.4695 77.6258 59.3659 77.6388 59.2623 77.6388V77.6258Z" fill="#2C3E5E"/>
<path d="M59.2616 112.709C59.1709 112.709 59.0802 112.709 58.9896 112.67L22.6114 102.115C22.197 101.999 21.9121 101.61 21.9121 101.183V87.5976C21.9121 87.0666 22.3395 86.6263 22.8834 86.6263C23.4273 86.6263 23.8547 87.0537 23.8547 87.5976V100.458L59.2616 110.727L93.6971 100.47V83.5182C93.6971 82.9872 94.1245 82.5469 94.6684 82.5469C95.2123 82.5469 95.6397 82.9742 95.6397 83.5182V101.196C95.6397 101.623 95.3548 101.999 94.9404 102.128L59.5335 112.683C59.4429 112.709 59.3522 112.722 59.2616 112.722V112.709Z" fill="#2C3E5E"/>
<path d="M50.87 57.7457C50.5463 57.7457 50.2355 57.5773 50.0671 57.2795C50.0412 57.2406 49.4973 56.2952 48.8886 54.8318C48.6943 54.3526 48.9145 53.8087 49.4066 53.6015C49.8858 53.4072 50.4297 53.6274 50.6369 54.1195C51.1809 55.4534 51.6859 56.3211 51.6989 56.3341C51.9579 56.7873 51.8154 57.3572 51.3622 57.6162C51.2068 57.7068 51.0514 57.7457 50.883 57.7457H50.87Z" fill="#B096FF"/>
<path d="M48.3964 50.6233C47.9302 50.6233 47.5288 50.2866 47.464 49.8204C47.3604 49.0952 47.3086 48.3829 47.3086 47.6965C47.3086 46.5439 47.464 45.4561 47.7619 44.4589C47.9043 43.9667 48.4353 43.6689 48.9274 43.8243C49.4195 43.9667 49.7045 44.4977 49.562 44.9898C49.3159 45.8057 49.1864 46.7123 49.1864 47.6836C49.1864 48.2793 49.2382 48.9009 49.3289 49.5355C49.4066 50.0535 49.044 50.5197 48.526 50.5974C48.4871 50.5974 48.4353 50.5974 48.3964 50.5974V50.6233ZM51.401 41.5838C51.129 41.5838 50.8571 41.4673 50.6757 41.2471C50.352 40.8457 50.4038 40.2499 50.8052 39.9262C52.0615 38.8901 53.6544 38.0872 55.5581 37.5044C56.0632 37.362 56.5812 37.6339 56.7237 38.126C56.8791 38.6182 56.5942 39.1491 56.102 39.2916C54.4444 39.7967 53.0587 40.483 51.9967 41.3637C51.8283 41.5061 51.6082 41.5838 51.401 41.5838ZM65.7373 38.5146H60.7383C60.2203 38.5146 59.8059 38.1001 59.8059 37.5821C59.8059 37.0641 60.2203 36.6497 60.7383 36.6497H65.7373C66.2553 36.6497 66.6697 37.0641 66.6697 37.5821C66.6697 38.1001 66.2553 38.5146 65.7373 38.5146ZM70.7362 38.5146C70.2182 38.5146 69.8037 38.1001 69.8037 37.5821C69.8037 37.0641 70.2182 36.6367 70.7362 36.6367C72.3032 36.6238 73.8055 36.3 75.2171 35.6784C75.6833 35.4712 76.2402 35.6784 76.4603 36.1576C76.6675 36.6367 76.4603 37.1806 75.9812 37.4008C74.3364 38.126 72.5752 38.5016 70.7621 38.5275L70.7362 38.5146ZM79.6332 34.6035C79.4001 34.6035 79.167 34.5258 78.9857 34.3445C78.6101 33.9948 78.5842 33.3991 78.9468 33.0235C80.0088 31.8839 80.8247 30.5759 81.3556 29.1254C81.537 28.6333 82.0679 28.3872 82.56 28.5685C83.0522 28.7498 83.2982 29.2808 83.1169 29.7729C82.4953 31.4694 81.5499 32.9976 80.3196 34.3186C80.1383 34.5128 79.8922 34.6164 79.6332 34.6164V34.6035ZM82.9615 25.4733C82.4694 25.4733 82.0679 25.0978 82.0291 24.6056C81.9125 23.1163 81.3686 21.7047 80.4362 20.5262C80.1124 20.1247 80.1901 19.529 80.5916 19.2053C80.993 18.8815 81.5888 18.9462 81.9125 19.3607C83.0651 20.8241 83.7645 22.5854 83.9069 24.4502C83.9458 24.9683 83.5572 25.4215 83.0392 25.4604C83.0133 25.4604 82.9874 25.4604 82.9615 25.4604V25.4733Z" fill="#B096FF"/>
<path d="M77.0687 18.0522C76.978 18.0522 76.8744 18.0393 76.7838 18.0134C76.0585 17.7803 75.2944 17.6637 74.5174 17.6637C73.9994 17.6637 73.585 17.2493 73.585 16.7313C73.585 16.2132 73.9994 15.7988 74.5174 15.7988C75.4887 15.7988 76.447 15.9413 77.3536 16.2391C77.8457 16.3946 78.1177 16.9255 77.9623 17.4176C77.8327 17.8191 77.4701 18.0781 77.0687 18.0781V18.0522Z" fill="#B096FF"/>
<path d="M66.8246 25.9015C66.7469 25.9015 66.6821 25.8885 66.6174 25.8626L45.6893 17.2246C45.482 17.1339 45.3525 16.9397 45.3525 16.7195C45.3525 16.4993 45.482 16.2921 45.6893 16.2015L66.6174 7.33034C66.7857 7.25263 66.98 7.27853 67.1354 7.38214C67.2908 7.48574 67.3815 7.6541 67.3815 7.84836V25.3575C67.3815 25.5388 67.2908 25.7201 67.1354 25.8238C67.0447 25.8885 66.9411 25.9144 66.8246 25.9144V25.9015ZM47.334 16.7065L66.2677 24.5157V8.69015L47.334 16.7195V16.7065Z" fill="#B096FF"/>
<path d="M68.1716 18.0139H55.8038C55.0916 18.0139 54.5088 17.4312 54.5088 16.7189C54.5088 16.0066 55.0916 15.4238 55.8038 15.4238H68.1716C68.8839 15.4238 69.4667 16.0066 69.4667 16.7189C69.4667 17.4312 68.8839 18.0139 68.1716 18.0139Z" fill="#B096FF"/>
</g>
<defs>
<clipPath id="clip0_7015_12889">
<rect width="120" height="120" fill="white"/>
</clipPath>
</defs>
</svg>
